# xmcd
# Track frame offsets:
# 150
# 12880
# 27035
# 40177
# 57092
# 75285
# 91012
# 109495
# 128470
# 139647
# 151622
# 171572
# 189802
# 203720
# 219120
# 230847
# 248835
# 266362
#
# Disc length: 3723 seconds
# Revision: 0
# Processed by: cddbd v1.4PL0 Copyright (c) Steve Scherf et al.
# Submitted via: VisiTrax 2.9.5.180 - For more info visit www.synapsa.com
#
DISCID=d50e8912
DTITLE=Trudi Lalor - Next time 'round
DYEAR=1900
DGENRE=Irsk
TTITLE0=One love
TTITLE1=I knew enough to fall in love
TTITLE2=Next time round
TTITLE3=Blossom time in Ireland
TTITLE4=For reasons I've forgotten
TTITLE5=Double dealing heart
TTITLE6=Lucky ole Colorado
TTITLE7=Lovely Laoise
TTITLE8=It only hurts when I laugh
TTITLE9=Money talks
TTITLE10=The blame
TTITLE11=An old irish song
TTITLE12=Old fashioned love
TTITLE13=If this world could love
TTITLE14=Don't wanna talk
TTITLE15=If those lips could only speak
TTITLE16=Mr. Dj
TTITLE17=100 honeymoons
EXTD=
EXTT0=
EXTT1=
EXTT2=
EXTT3=
EXTT4=
EXTT5=
EXTT6=
EXTT7=
EXTT8=
EXTT9=
EXTT10=
EXTT11=
EXTT12=
EXTT13=
EXTT14=
EXTT15=
EXTT16=
EXTT17=
PLAYORDER=
